<svg width="130" height="127" viewBox="0 0 130 127" fill="none" xmlns="http://www.w3.org/2000/svg">
<mask id="mask0_5_45" style="mask-type:alpha" maskUnits="userSpaceOnUse" x="0" y="0" width="130" height="127">
<rect width="130" height="127" fill="#D9D9D9"/>
</mask>
<g mask="url(#mask0_5_45)">
<path d="M65 105.833C60.6667 102.482 55.9722 99.8802 50.9167 98.0281C45.8611 96.176 40.625 95.25 35.2083 95.25C31.4167 95.25 27.6927 95.7351 24.0365 96.7052C20.3802 97.6753 16.8819 99.0424 13.5417 100.806C11.6458 101.776 9.81771 101.732 8.0573 100.674C6.29688 99.6156 5.41667 98.0722 5.41667 96.0437V32.2792C5.41667 31.309 5.66494 30.383 6.16146 29.501C6.65799 28.6191 7.40278 27.9576 8.39584 27.5167C12.5486 25.4 16.8819 23.8125 21.3958 22.7542C25.9097 21.6958 30.5139 21.1667 35.2083 21.1667C40.4445 21.1667 45.5677 21.8281 50.5781 23.151C55.5885 24.474 60.3958 26.4583 65 29.1042V93.1333C69.6042 90.3111 74.434 88.1944 79.4896 86.7833C84.5451 85.3722 89.6458 84.6667 94.7917 84.6667C98.0417 84.6667 101.224 84.9312 104.339 85.4604C107.453 85.9896 110.59 86.7833 113.75 87.8417V24.3417C115.104 24.7826 116.436 25.2457 117.745 25.7307C119.054 26.2158 120.34 26.8111 121.604 27.5167C122.597 27.9576 123.342 28.6191 123.839 29.501C124.335 30.383 124.583 31.309 124.583 32.2792V96.0437C124.583 98.0722 123.703 99.6156 121.943 100.674C120.182 101.732 118.354 101.776 116.458 100.806C113.118 99.0424 109.62 97.6753 105.964 96.7052C102.307 95.7351 98.5833 95.25 94.7917 95.25C89.375 95.25 84.1389 96.176 79.0833 98.0281C74.0278 99.8802 69.3333 102.482 65 105.833ZM75.8333 79.375V29.1042L102.917 2.64583V55.5625L75.8333 79.375ZM54.1667 87.974V35.5865C51.1875 34.3517 48.0955 33.4036 44.8906 32.7422C41.6858 32.0807 38.4583 31.75 35.2083 31.75C31.8681 31.75 28.6181 32.0587 25.4583 32.676C22.2986 33.2934 19.2292 34.2194 16.25 35.4542V87.974C19.4097 86.8274 22.5469 85.9896 25.6615 85.4604C28.776 84.9312 31.9583 84.6667 35.2083 84.6667C38.4583 84.6667 41.6406 84.9312 44.7552 85.4604C47.8698 85.9896 51.0069 86.8274 54.1667 87.974Z" fill="#1C1B1F"/>
</g>
</svg>
