<svg width="95" height="86" viewBox="0 0 95 86" fill="none" xmlns="http://www.w3.org/2000/svg">
<path d="M47.5 33.5H73.5417V24H47.5V33.5ZM47.5 62H73.5417V52.5H47.5V62ZM31.875 38.25C34.7396 38.25 37.1918 37.3198 39.2318 35.4594C41.2717 33.599 42.2917 31.3625 42.2917 28.75C42.2917 26.1375 41.2717 23.901 39.2318 22.0406C37.1918 20.1802 34.7396 19.25 31.875 19.25C29.0104 19.25 26.5582 20.1802 24.5182 22.0406C22.4783 23.901 21.4583 26.1375 21.4583 28.75C21.4583 31.3625 22.4783 33.599 24.5182 35.4594C26.5582 37.3198 29.0104 38.25 31.875 38.25ZM31.875 66.75C34.7396 66.75 37.1918 65.8198 39.2318 63.9594C41.2717 62.099 42.2917 59.8625 42.2917 57.25C42.2917 54.6375 41.2717 52.401 39.2318 50.5406C37.1918 48.6802 34.7396 47.75 31.875 47.75C29.0104 47.75 26.5582 48.6802 24.5182 50.5406C22.4783 52.401 21.4583 54.6375 21.4583 57.25C21.4583 59.8625 22.4783 62.099 24.5182 63.9594C26.5582 65.8198 29.0104 66.75 31.875 66.75ZM11.0417 85.75C8.17708 85.75 5.72483 84.8198 3.6849 82.9594C1.64497 81.099 0.625 78.8625 0.625 76.25V9.75C0.625 7.1375 1.64497 4.90104 3.6849 3.04063C5.72483 1.18021 8.17708 0.25 11.0417 0.25H83.9583C86.8229 0.25 89.2752 1.18021 91.3151 3.04063C93.355 4.90104 94.375 7.1375 94.375 9.75V76.25C94.375 78.8625 93.355 81.099 91.3151 82.9594C89.2752 84.8198 86.8229 85.75 83.9583 85.75H11.0417ZM11.0417 76.25H83.9583V9.75H11.0417V76.25Z" fill="#1C1B1F"/>
</svg>
