<svg width="72" height="60" viewBox="0 0 72 60" fill="none" xmlns="http://www.w3.org/2000/svg">
<mask id="mask0_6_129" style="mask-type:alpha" maskUnits="userSpaceOnUse" x="0" y="0" width="72" height="60">
<rect width="72" height="60" fill="#D9D9D9"/>
</mask>
<g mask="url(#mask0_6_129)">
<path d="M36.0001 43.75C39.7501 43.75 42.9376 42.6562 45.5626 40.4687C48.1876 38.2812 49.5001 35.625 49.5001 32.5C49.5001 29.375 48.1876 26.7187 45.5626 24.5312C42.9376 22.3437 39.7501 21.25 36.0001 21.25C32.2501 21.25 29.0626 22.3437 26.4376 24.5312C23.8126 26.7187 22.5001 29.375 22.5001 32.5C22.5001 35.625 23.8126 38.2812 26.4376 40.4687C29.0626 42.6562 32.2501 43.75 36.0001 43.75ZM36.0001 38.75C33.9001 38.75 32.1251 38.1458 30.6751 36.9375C29.2251 35.7292 28.5001 34.25 28.5001 32.5C28.5001 30.75 29.2251 29.2708 30.6751 28.0625C32.1251 26.8542 33.9001 26.25 36.0001 26.25C38.1001 26.25 39.8751 26.8542 41.3251 28.0625C42.7751 29.2708 43.5001 30.75 43.5001 32.5C43.5001 34.25 42.7751 35.7292 41.3251 36.9375C39.8751 38.1458 38.1001 38.75 36.0001 38.75ZM12.0001 52.5C10.3501 52.5 8.93756 52.0104 7.76256 51.0312C6.58756 50.0521 6.00006 48.875 6.00006 47.5V17.5C6.00006 16.125 6.58756 14.9479 7.76256 13.9687C8.93756 12.9896 10.3501 12.5 12.0001 12.5H21.4501L27.0001 7.5H45.0001L50.5501 12.5H60.0001C61.6501 12.5 63.0626 12.9896 64.2376 13.9687C65.4126 14.9479 66.0001 16.125 66.0001 17.5V47.5C66.0001 48.875 65.4126 50.0521 64.2376 51.0312C63.0626 52.0104 61.6501 52.5 60.0001 52.5H12.0001ZM60.0001 47.5V17.5H47.8501L42.3751 12.5H29.6251L24.1501 17.5H12.0001V47.5H60.0001Z" fill="#1C1B1F"/>
</g>
</svg>
