<svg width="75" height="70" viewBox="0 0 75 70" fill="none" xmlns="http://www.w3.org/2000/svg">
<ellipse cx="37.5" cy="35" rx="28.125" ry="26.25" fill="#86BBD8" stroke="#86BBD8" stroke-width="2"/>
<path d="M55.4807 54.9531C55.9209 54.7275 56.1297 54.2087 55.9305 53.7559C54.7116 50.9859 52.4113 48.5474 49.3169 46.7636C45.9268 44.8093 41.7731 43.75 37.5 43.75C33.2269 43.75 29.0732 44.8093 25.6831 46.7636C22.5887 48.5474 20.2884 50.9859 19.0695 53.7559C18.8703 54.2087 19.0791 54.7275 19.5193 54.9531V54.9531C30.8085 60.7378 44.1915 60.7378 55.4807 54.9531V54.9531Z" fill="black"/>
<path d="M47.7013 33.0799C47.7013 38.6027 43.1489 43.1065 37.5 43.1065C31.8511 43.1065 27.2987 38.6027 27.2987 33.0799C27.2987 27.5571 31.8511 23.0533 37.5 23.0533C43.1489 23.0533 47.7013 27.5571 47.7013 33.0799Z" fill="black" stroke="#86BBD8" stroke-width="2" stroke-linecap="round"/>
</svg>
